# xmcd
#
# Track frame offsets:
#	150
#	21985
#	39551
#	53870
#	63511
#	80289
#	100186
#	123200
#	140997
#	159756
#	172404
#	194515
#	208098
#	226153
#	236526
#	255161
#	273434
#
# Disc length: 3880 seconds
# Revision: 0
# Processed by: cddbd v1.5.2PL0 Copyright (c) Steve Scherf et al.
# Submitted via: dBpowerAMP V12.0
#
DISCID=ec0f2611
DTITLE=The Avett brothers - Magpie and the dandelion
DYEAR=2013
DGENRE=Country
TTITLE0=Open-ended life
TTITLE1=Morning song
TTITLE2=Neber been alive
TTITLE3=Another is waiting
TTITLE4=Bring your love to me
TTITLE5=Good to you
TTITLE6=Part from me
TTITLE7=Skin and bones
TTITLE8=Souls like the wheels
TTITLE9=Vanity
TTITLE10=The clearness is gone
TTITLE11=Vanity [Demo]
TTITLE12=Morning song [Demo]
TTITLE13=Another is waiting [Demo]
TTITLE14=Bring your love [Demo]
TTITLE15=Skin and bones [Demo]
TTITLE16=The clearness is gone [Demo]
EXTD=
EXTT0=
EXTT1=
EXTT2=
EXTT3=
EXTT4=
EXTT5=
EXTT6=
EXTT7=
EXTT8=
EXTT9=
EXTT10=
EXTT11=
EXTT12=
EXTT13=
EXTT14=
EXTT15=
EXTT16=
PLAYORDER=
